<?xml version="1.0" standalone="no"?>
<!DOCTYPE svg PUBLIC "-//W3C//DTD SVG 20010904//EN"
 "http://www.w3.org/TR/2001/REC-SVG-20010904/DTD/svg10.dtd">
<svg version="1.0" xmlns="http://www.w3.org/2000/svg"
 width="600.000000pt" height="600.000000pt" viewBox="0 0 600.000000 600.000000"
 preserveAspectRatio="xMidYMid meet">
<g transform="translate(0.000000,600.000000) scale(0.066667,-0.066667)"
fill="#000000" stroke="none">
<path d="M4026 8911 c-295 -36 -852 -305 -1326 -640 -567 -402 -1040 -1191
-1110 -1853 -67 -643 129 -1387 528 -1995 76 -116 331 -418 354 -418 6 -1 71
-58 146 -128 74 -71 176 -159 226 -197 l92 -68 17 -130 c9 -71 24 -224 32
-339 31 -406 44 -557 60 -661 8 -57 22 -158 31 -224 70 -525 175 -1047 245
-1215 30 -71 64 -67 97 11 137 319 296 825 376 1196 147 681 226 982 205 788
-5 -42 -15 -183 -24 -315 -8 -132 -21 -328 -30 -435 -23 -316 -33 -648 -39
-1358 -3 -367 -11 -714 -18 -770 -12 -101 5 -147 40 -106 19 22 218 337 289
454 36 60 78 130 94 155 39 61 272 562 359 770 129 309 308 814 522 1476 59
182 72 172 28 -21 -17 -75 -44 -203 -60 -285 -15 -83 -42 -211 -59 -285 -48
-207 -100 -474 -136 -705 -19 -116 -53 -310 -77 -433 -51 -261 -52 -280 -17
-279 27 0 174 186 345 434 282 408 275 398 432 698 47 90 111 208 142 262 31
54 91 167 133 253 42 85 97 185 122 222 25 37 66 112 91 167 263 572 411 802
773 1203 298 330 500 798 413 956 -36 67 -163 113 -197 72 -28 -34 -45 -28
-45 15 0 47 -39 86 -134 134 -99 50 -120 48 -182 -16 -235 -246 -803 -456
-981 -362 l-40 21 87 66 c181 137 335 275 335 300 0 32 -81 116 -128 134 -34
13 -182 -19 -326 -71 -68 -24 -72 -24 -112 5 -58 41 -166 262 -187 381 -28
167 -103 233 -211 188 -67 -28 -67 -31 -13 95 86 201 85 225 -13 430 -144 303
-259 608 -249 667 13 81 -82 208 -203 272 -100 54 -96 49 -327 410 -118 184
-160 262 -151 279 7 12 77 96 157 184 128 145 142 166 132 202 -17 59 -12 139
11 193 76 176 -133 263 -519 216z m399 -58 c70 -27 106 -128 61 -173 -20 -20
-21 -92 -1 -159 14 -49 11 -53 -95 -164 -230 -240 -231 -243 -137 -382 37 -55
67 -103 67 -106 0 -10 -76 10 -84 23 -13 21 -36 15 -36 -10 0 -26 98 -73 128
-61 18 7 39 -22 182 -250 37 -59 32 -70 -17 -33 -36 28 -53 28 -53 1 0 -32 73
-74 96 -55 14 11 29 5 55 -23 20 -22 71 -56 113 -76 102 -48 178 -150 167
-222 -8 -48 25 -140 191 -535 l42 -100 -32 -34 c-18 -19 -32 -40 -32 -47 0
-21 46 -13 55 11 15 39 32 24 71 -60 54 -113 50 -144 -43 -382 -81 -204 -98
-271 -68 -271 8 0 19 -17 24 -37 17 -70 102 -53 185 37 86 94 100 94 111 -3 5
-43 35 -133 67 -199 56 -119 57 -122 38 -203 -18 -81 -9 -119 24 -98 9 5 16
29 16 53 0 82 11 90 74 55 31 -17 62 -45 70 -62 17 -39 204 -35 344 9 120 37
121 37 48 -29 -117 -106 -510 -409 -519 -400 -3 3 3 29 13 58 26 82 10 120
-21 49 -35 -80 -47 -145 -25 -145 9 0 36 -13 58 -30 144 -104 632 -115 846
-18 172 78 409 238 556 377 68 63 85 50 86 -64 0 -76 20 -130 47 -130 9 0 13
13 9 30 -6 22 -1 30 19 30 14 0 47 21 71 46 66 67 94 34 94 -107 0 -163 -188
-531 -386 -753 -135 -150 -275 -321 -353 -429 -103 -142 -251 -365 -251 -379
0 -20 -252 -537 -283 -580 -16 -22 -70 -122 -121 -221 -50 -99 -108 -207 -128
-241 -19 -35 -88 -163 -151 -285 -64 -123 -131 -240 -149 -261 -18 -21 -49
-61 -69 -90 -19 -29 -69 -93 -111 -143 -41 -49 -90 -110 -109 -135 l-33 -44
22 81 c32 123 104 522 119 661 11 96 49 361 69 480 133 787 132 819 -14 693
-73 -64 -79 -78 -243 -567 -55 -167 -121 -359 -146 -428 -25 -69 -77 -213
-115 -320 -107 -298 -124 -343 -235 -595 -57 -129 -103 -239 -103 -244 0 -94
-407 -744 -466 -744 -18 0 -18 -3 10 373 13 176 21 361 18 412 -4 51 -2 177 5
280 6 103 15 329 20 503 10 360 25 609 67 1132 l14 173 -52 79 c-71 108 -80
99 -135 -133 -26 -111 -58 -245 -72 -299 -13 -54 -68 -286 -122 -517 -54 -231
-109 -448 -122 -480 -14 -33 -50 -118 -80 -188 -31 -70 -78 -180 -105 -245
-34 -78 -54 -110 -62 -97 -17 32 -70 391 -81 552 -5 78 -15 186 -22 240 -7 54
-17 229 -22 390 -6 161 -20 387 -32 503 -39 375 -40 393 -24 440 14 40 12 52
-18 88 -29 35 -34 55 -30 124 8 124 -25 176 -267 420 -514 518 -829 1047 -876
1470 -4 45 -18 123 -29 173 -33 141 -67 432 -67 567 0 134 28 484 41 520 5 12
11 42 14 66 3 24 12 52 21 63 9 11 12 27 7 35 -11 17 85 302 157 467 151 346
274 501 566 714 162 118 487 320 515 320 8 0 40 16 72 36 351 222 854 339
1082 252z m-2435 -1656 c-5 -12 -8 -8 -9 9 0 16 3 25 8 20 5 -5 6 -18 1 -29z
m-25 3 c0 -8 -7 -15 -16 -15 -9 0 -12 7 -6 15 5 8 12 15 15 15 4 0 7 -7 7 -15z
m-4 -34 c11 3 19 -1 19 -10 0 -9 -8 -16 -19 -16 -12 0 -11 -5 4 -14 15 -10 5
-13 -34 -11 -53 2 -82 25 -33 25 19 0 20 6 5 34 -17 32 -16 32 11 9 16 -13 37
-21 47 -17z m-15 -116 c8 0 15 -17 15 -38 0 -34 -5 -37 -50 -34 -59 5 -70 -18
-20 -43 47 -25 51 -65 6 -65 -41 0 -64 -28 -37 -45 13 -8 13 -14 2 -22 -28
-17 -19 -38 21 -53 26 -10 35 -21 27 -34 -7 -10 -12 -68 -12 -129 l0 -110 -52
-17 c-79 -27 -81 -62 -3 -51 57 8 61 6 55 -24 -3 -18 -10 -58 -15 -89 -5 -31
-15 -56 -23 -56 -7 0 -15 -19 -18 -41 -2 -23 -13 -40 -23 -38 -11 2 -19 -3
-19 -11 0 -8 7 -15 17 -15 17 0 12 -88 -8 -142 -9 -24 -8 -25 4 -8 20 29 27
19 36 -52 11 -88 57 -283 72 -301 7 -8 10 -40 8 -71 -3 -30 0 -52 7 -48 15 9
49 -93 38 -111 -10 -16 42 -193 67 -227 12 -18 14 -14 7 15 -8 31 -7 33 7 11
9 -14 15 -34 13 -45 -2 -10 2 -35 8 -54 8 -24 6 -40 -8 -50 -16 -11 -14 -13 6
-6 14 4 26 2 26 -6 0 -8 14 -29 31 -46 17 -17 34 -45 37 -62 3 -16 13 -38 21
-49 9 -10 12 -22 7 -27 -5 -5 -4 -17 3 -28 8 -13 14 -11 23 10 10 28 11 28 12
2 1 -15 15 -47 31 -70 17 -24 29 -50 27 -58 -3 -7 1 -15 7 -16 20 -2 66 -53
60 -66 -4 -7 7 -16 24 -20 35 -9 44 -34 13 -36 -15 -1 -15 -3 0 -9 11 -4 19
-20 19 -36 0 -16 7 -29 15 -29 8 0 15 7 15 16 0 9 7 11 16 6 9 -6 13 -19 9
-30 -9 -21 34 -67 62 -67 10 0 18 -7 18 -16 0 -9 -7 -12 -15 -6 -8 5 -15 3
-15 -4 0 -6 14 -20 31 -31 16 -10 26 -26 20 -35 -6 -10 -2 -14 10 -10 20 6 75
-39 72 -59 -6 -39 3 -56 17 -34 13 20 16 18 14 -8 -1 -20 70 -63 91 -55 20 8
20 6 0 -19 -20 -26 -20 -28 0 -20 23 8 65 -23 50 -38 -4 -4 20 -16 55 -27 39
-11 69 -32 78 -52 10 -21 26 -32 43 -28 17 3 31 -6 37 -24 5 -16 17 -29 27
-29 10 0 3 -9 -14 -19 -35 -21 -160 -102 -170 -111 -4 -3 1 -13 11 -23 13 -13
36 -5 94 30 100 63 151 49 134 -34 -15 -76 -9 -115 22 -149 29 -31 31 -38 12
-46 -20 -8 -20 -12 4 -38 26 -29 25 -29 -55 -21 -97 11 -113 22 -115 83 -1 32
-15 58 -47 84 -25 21 -42 44 -37 51 4 7 -3 8 -17 3 -15 -5 -32 3 -46 23 -13
18 -30 28 -40 22 -10 -6 -13 -1 -7 14 5 13 0 27 -12 32 -12 4 -22 25 -22 46 0
21 -7 38 -15 38 -8 0 -10 -12 -5 -26 7 -21 5 -21 -14 3 -17 22 -19 33 -6 41
12 8 10 12 -6 12 -13 0 -39 31 -58 68 -27 56 -38 65 -55 51 -16 -14 -21 -13
-21 1 0 10 -17 38 -38 63 -20 24 -33 51 -28 60 5 8 -5 7 -23 -3 -19 -9 -37
-14 -42 -9 -5 5 -1 9 10 9 15 0 -57 108 -90 135 -5 4 -35 41 -66 83 -31 41
-64 79 -74 85 -9 6 -17 16 -17 23 0 32 -70 128 -81 111 -9 -15 -14 -13 -21 6
-6 13 -6 31 -2 38 9 14 -19 76 -41 90 -7 5 -16 24 -19 42 -4 18 -21 53 -38 77
-18 25 -28 45 -23 45 5 0 -3 22 -17 49 -14 27 -27 55 -28 64 -1 8 -3 23 -5 33
-1 11 -12 19 -24 19 -13 0 -23 7 -23 15 0 8 6 15 12 15 7 0 10 20 6 45 -3 25
-11 45 -18 45 -6 0 -8 17 -4 38 8 42 -20 52 -31 11 -4 -16 -6 -11 -6 11 2 50
-37 195 -49 187 -6 -3 -9 14 -7 39 1 24 -3 44 -10 44 -7 0 -13 10 -13 23 0 12
-7 22 -15 22 -8 0 -15 7 -15 16 0 9 8 11 17 5 13 -8 14 12 4 78 -7 49 -13 176
-14 284 -1 191 -39 412 -71 412 -7 0 -9 5 -5 12 4 7 10 53 14 103 4 50 18 112
31 137 27 53 32 100 8 85 -9 -6 -8 4 3 21 14 22 23 26 32 13 8 -11 9 -4 3 16
-13 46 4 112 25 99 12 -7 12 -2 1 17 -17 32 7 102 31 87 9 -6 9 2 -1 19 -12
21 -9 33 16 54 17 15 24 27 17 27 -7 0 -4 7 9 14 15 10 30 7 46 -7 13 -12 31
-22 40 -22z m-56 -1117 c0 -13 -7 -23 -15 -23 -8 0 -15 10 -15 23 0 12 7 22
15 22 8 0 15 -10 15 -22z m3421 -27 c22 -32 20 -37 -42 -97 l-64 -63 -38 60
c-43 67 -39 83 29 112 65 29 88 26 115 -12z m-3381 -186 c-5 -5 -10 -1 -10 10
0 11 5 16 10 10 6 -5 6 -14 0 -20z m4112 -313 c48 -34 42 -44 -46 -71 -171
-53 -373 -45 -282 11 11 7 261 78 286 82 5 1 23 -10 42 -22z m883 -130 l65
-32 -32 -35 -32 -34 -42 30 c-75 53 -106 26 -33 -30 57 -43 11 -91 -49 -52
-42 27 -69 0 -30 -30 23 -16 23 -20 3 -37 -15 -12 -25 -13 -32 -3 -12 20 -68
21 -68 2 0 -8 7 -18 15 -23 78 -49 -344 -245 -582 -271 -106 -11 -393 5 -393
23 0 42 118 87 248 94 261 14 577 158 805 366 83 76 73 74 157 32z m-5100 -22
c-5 -5 -10 -1 -10 10 0 11 5 16 10 10 6 -5 6 -14 0 -20z m15 -90 c-5 -5 -10
-1 -10 10 0 11 5 16 10 10 6 -5 6 -14 0 -20z m43 -5 c5 -8 5 -15 1 -15 -4 0
-11 7 -16 15 -6 8 -6 15 -2 15 4 0 11 -7 17 -15z m5300 -41 c-29 -37 -47 -49
-77 -49 -38 0 -32 19 15 47 59 36 89 36 62 2z m-4998 -149 c-5 -5 -10 -1 -10
10 0 11 5 16 10 10 6 -5 6 -14 0 -20z m20 -50 c0 -8 -3 -15 -7 -15 -3 0 -10 7
-15 15 -6 8 -3 15 6 15 9 0 16 -7 16 -15z m-185 -139 c-4 -10 -8 -2 -8 19 0
21 4 29 8 19 4 -11 4 -27 0 -38z m295 -72 c-7 -7 -14 5 -15 27 -2 35 0 37 13
13 8 -15 9 -33 2 -40z m-168 -138 c-15 -15 -17 -13 -9 8 6 15 14 24 19 19 5
-5 0 -17 -10 -27z m128 -156 c-5 -5 -14 -5 -20 0 -5 6 -1 10 10 10 11 0 16 -4
10 -10z m425 -140 c0 -8 -3 -15 -7 -15 -3 0 -10 7 -15 15 -6 8 -3 15 6 15 9 0
16 -7 16 -15z m-309 -13 c4 -6 -2 -12 -14 -12 -12 0 -22 6 -22 12 0 7 6 13 14
13 8 0 18 -6 22 -13z m34 -102 c-5 -5 -14 -5 -20 0 -5 6 -1 10 10 10 11 0 16
-4 10 -10z m75 -30 c-5 -5 -10 -1 -10 10 0 11 5 16 10 10 6 -5 6 -14 0 -20z
m119 -104 c-5 -14 -13 -22 -17 -18 -4 4 -3 19 2 33 5 14 13 22 17 18 4 -4 3
-19 -2 -33z m541 -566 c36 -38 6 -73 -64 -75 -57 -2 -75 2 -70 16 4 11 0 28
-9 39 -9 11 -13 24 -8 29 7 7 143 -1 151 -9z m-53 -130 c30 0 58 8 61 18 4 11
10 8 17 -8 6 -16 4 -23 -5 -17 -21 13 -19 -28 3 -50 14 -14 14 -18 0 -18 -14
0 -13 -9 3 -34 30 -47 15 -124 -19 -98 -16 13 -15 8 4 -15 22 -25 24 -33 8
-34 -13 -1 -9 -7 9 -14 28 -12 28 -13 1 -14 -38 -1 -84 -44 -74 -69 5 -13 19
-16 48 -8 34 10 41 7 43 -17 2 -25 -1 -26 -22 -9 -21 17 -22 16 -7 -13 15 -27
13 -33 -12 -39 -17 -5 -26 -2 -22 5 5 8 2 14 -6 14 -8 0 -18 -12 -22 -26 -3
-15 -8 1 -9 34 -3 48 -6 54 -16 30 -11 -25 -13 -20 -12 22 1 29 -3 81 -8 116
-5 35 -5 63 1 62 7 -1 15 0 19 2 4 2 28 4 53 5 29 2 45 10 45 25 0 17 -17 22
-73 19 -62 -4 -72 0 -64 20 5 14 2 34 -8 46 -9 11 -13 25 -8 30 5 5 2 23 -7
41 -14 26 -13 28 3 13 11 -11 45 -19 76 -19z m2241 -165 c5 -8 2 -15 -7 -15
-9 0 -16 7 -16 15 0 8 3 15 7 15 3 0 10 -7 16 -15z m28 -77 c-4 -7 -21 -13
-37 -13 -16 0 -29 6 -29 13 0 7 17 13 37 13 21 0 34 -6 29 -13z m-33 -118 c-5
-33 -15 -45 -36 -45 -21 0 -28 7 -21 24 5 13 9 33 9 45 0 11 12 21 27 21 22 0
26 -9 21 -45z m-32 -112 c8 5 14 1 14 -8 0 -17 -42 -38 -53 -26 -4 3 -3 19 3
34 6 17 13 21 17 10 3 -10 12 -14 19 -10z m-1 -105 c0 -9 -7 -5 -15 7 -8 12
-15 29 -15 38 0 8 7 4 15 -8 8 -12 15 -29 15 -37z m-158 -1129 c-6 -15 -16
-53 -23 -86 -21 -109 -30 -150 -36 -169 -4 -11 1 -19 10 -19 27 0 0 -20 -34
-25 -17 -3 -27 1 -22 9 5 8 1 18 -7 24 -9 5 -12 22 -7 38 5 16 2 29 -7 29 -9
0 -16 7 -16 16 0 9 6 12 13 8 7 -4 13 13 14 39 1 25 8 53 17 62 9 9 16 32 16
51 0 49 30 42 31 -7 2 -41 2 -40 16 7 8 27 21 49 30 49 10 0 12 -11 5 -26z
m-1822 -101 c0 -20 7 -41 16 -46 9 -6 12 -19 8 -31 -4 -12 -2 -21 6 -21 8 0
15 -13 15 -29 0 -17 14 -43 30 -58 31 -29 28 -77 -5 -72 -37 5 -85 50 -77 72
4 11 -5 37 -22 56 -27 32 -28 38 -8 77 12 23 22 55 21 70 -1 23 -3 23 -14 -3
-9 -23 -13 -24 -14 -7 -1 13 3 28 9 34 16 16 35 -6 35 -42z"/>
<path d="M4189 8749 c-37 -7 -46 -31 -15 -41 30 -11 121 13 127 34 7 18 -40
21 -112 7z"/>
<path d="M4231 8662 c-35 -16 -46 -28 -36 -38 21 -21 118 4 118 31 0 30 -24
32 -82 7z"/>
<path d="M4248 8494 c-58 -37 -83 -79 -49 -79 26 0 150 82 146 97 -8 27 -35
23 -97 -18z"/>
<path d="M4035 8154 c-92 -75 -117 -113 -82 -124 8 -2 45 23 82 57 37 34 83
71 101 84 36 24 46 65 15 63 -10 0 -62 -36 -116 -80z"/>
<path d="M4312 7740 c-6 -10 -3 -25 5 -33 9 -9 12 -25 8 -36 -6 -15 4 -21 30
-21 44 0 64 23 37 40 -11 7 -19 23 -19 35 0 27 -46 38 -61 15z"/>
<path d="M4560 7351 c-10 -19 -10 -32 0 -38 22 -14 45 5 45 38 0 37 -24 37
-45 0z"/>
<path d="M4666 7306 c-24 -44 -20 -57 28 -81 31 -15 48 -17 60 -5 27 27 19 70
-14 70 -17 0 -30 10 -30 23 0 31 -26 27 -44 -7z"/>
<path d="M4778 7186 c-26 -51 -30 -91 -8 -91 13 0 75 105 75 127 0 27 -48 1
-67 -36z"/>
<path d="M4882 6738 c-91 -68 -159 -194 -83 -153 44 23 127 135 112 150 -8 8
-20 9 -29 3z"/>
<path d="M4980 6666 c0 -47 35 -42 42 6 3 22 -3 33 -18 33 -16 0 -24 -14 -24
-39z"/>
<path d="M5035 6560 c-5 -5 -10 -23 -10 -39 0 -39 36 -25 42 16 5 32 -12 43
-32 23z"/>
<path d="M2077 6390 c-14 -24 9 -46 164 -156 l141 -100 10 -131 c48 -614 447
-1171 936 -1306 68 -19 110 -24 116 -15 13 22 6 26 -113 59 -253 70 -517 290
-677 564 -72 121 -143 286 -131 298 8 8 100 -88 207 -216 423 -507 597 -599
1098 -583 329 11 428 -13 290 -72 -27 -11 -26 -13 13 -19 53 -7 185 29 304 81
93 42 139 35 181 -25 28 -40 56 -37 149 16 61 35 80 40 80 23 0 -13 10 -23 23
-23 12 0 22 7 22 15 0 8 17 15 38 15 84 0 155 117 209 347 36 151 12 206 -45
107 l-24 -41 9 42 c27 128 27 130 4 130 -16 0 -27 -21 -34 -62 -11 -65 -94
-320 -128 -393 -30 -64 -48 -3 -29 97 26 137 -19 142 -82 9 -102 -211 -175
-246 -327 -155 -35 20 -128 71 -207 112 -215 112 -663 386 -752 460 -22 18
-100 66 -172 105 -330 178 -442 244 -522 305 -33 26 -172 124 -308 220 -136
95 -289 203 -340 240 -58 43 -96 62 -103 52z m484 -453 c70 -21 61 -44 -13
-32 -85 13 -73 -27 14 -46 58 -12 63 -17 63 -60 0 -47 45 -246 68 -301 7 -17
-32 20 -87 82 -103 116 -140 191 -156 320 -9 75 -11 74 111 37z m279 -392 c7
-58 5 -84 -5 -78 -8 6 -15 19 -15 30 0 10 -9 27 -20 36 -16 13 -18 33 -9 81 7
35 14 70 15 79 3 28 24 -61 34 -148z m-70 70 c-5 -5 -10 -1 -10 10 0 11 5 16
10 10 6 -5 6 -14 0 -20z m291 -134 c33 -181 110 -305 256 -410 31 -23 52 -47
46 -54 -6 -6 -3 -7 6 -2 10 5 54 -11 98 -36 84 -48 70 -48 -54 -1 -208 79
-426 374 -428 576 0 105 53 53 76 -73z m-129 79 c3 -18 14 -68 24 -111 21 -99
12 -131 -21 -68 -14 27 -21 49 -16 49 5 0 2 9 -7 20 -31 37 -40 162 -11 151
13 -5 27 -24 31 -41z m242 -155 c81 -230 422 -453 696 -455 45 -1 48 -3 25
-17 -15 -9 -46 -12 -68 -6 -22 5 -69 12 -105 16 -121 14 -333 118 -442 217
-116 106 -158 182 -168 301 -10 114 8 97 62 -56z m119 -32 c50 -171 434 -391
594 -340 20 6 28 5 22 -5 -5 -9 -1 -19 10 -23 55 -22 -118 -6 -212 20 -236 66
-385 168 -460 316 -37 74 -49 143 -22 127 8 -6 15 -1 15 10 1 34 28 -20 53
-105z m300 -188 c42 -21 101 -42 132 -48 30 -6 55 -17 55 -25 0 -7 6 -10 14
-5 8 5 18 2 23 -7 17 -27 -79 -16 -177 21 -176 66 -281 156 -299 254 -6 38 2
32 85 -55 51 -54 125 -114 167 -135z m36 40 c3 -3 0 -5 -8 -5 -7 0 -34 18 -58
39 l-45 38 52 -33 c29 -19 55 -36 59 -39z m818 -358 c16 -12 22 -22 15 -22 -8
1 -28 11 -44 23 -16 12 -22 22 -15 22 8 -1 28 -11 44 -23z m-76 -26 c25 -19
23 -21 -16 -40 -90 -42 -122 -45 -130 -15 -5 20 -21 29 -49 29 -51 0 -38 15
27 30 77 19 139 17 168 -4z"/>
<path d="M5050 6351 c-37 -77 6 -138 55 -79 25 31 25 36 3 52 -16 12 -19 22
-9 28 23 14 20 53 -4 53 -11 0 -31 -24 -45 -54z"/>
<path d="M5103 6239 c-27 -43 -7 -67 28 -35 16 14 29 35 29 46 0 30 -35 24
-57 -11z"/>
<path d="M5560 5315 c-6 -6 -10 -27 -10 -49 -1 -42 -97 -230 -191 -372 -59
-89 -64 -109 -26 -109 40 0 262 409 262 483 0 41 -18 64 -35 47z"/>
<path d="M5805 5228 c0 -13 7 -23 15 -23 8 0 15 10 15 23 0 12 -7 22 -15 22
-8 0 -15 -10 -15 -22z"/>
<path d="M5745 5213 c0 -14 7 -23 16 -20 9 3 16 12 16 20 0 7 -7 16 -16 19 -9
3 -16 -6 -16 -19z"/>
<path d="M5680 5210 c-17 -17 -11 -35 13 -35 12 0 22 6 22 14 0 19 -23 33 -35
21z"/>
<path d="M6911 5009 c-52 -30 -1 -101 53 -72 32 17 33 38 5 67 -25 25 -24 24
-58 5z"/>
<path d="M7210 4939 c-19 -31 -16 -181 4 -161 21 23 36 152 18 163 -8 5 -18 4
-22 -2z"/>
<path d="M6698 4915 c-37 -27 -17 -61 23 -40 16 9 29 26 29 38 0 27 -16 28
-52 2z"/>
<path d="M6959 4889 c-43 -61 -17 -94 29 -36 33 43 42 82 18 82 -8 0 -29 -21
-47 -46z"/>
<path d="M6970 4785 c-67 -86 -87 -135 -55 -135 19 0 150 180 150 206 0 37
-26 18 -95 -71z"/>
<path d="M7104 4811 c-39 -94 -42 -116 -19 -116 19 0 70 112 70 153 0 31 -34
7 -51 -37z"/>
<path d="M4418 4749 c-33 -11 -172 -74 -308 -140 -136 -66 -285 -131 -330
-146 -45 -14 -92 -28 -103 -32 -35 -11 11 -51 58 -51 275 0 662 145 765 287
74 103 52 125 -82 82z m-50 -85 c-55 -33 -171 -76 -180 -67 -8 8 178 95 207
97 12 0 0 -13 -27 -30z"/>
<path d="M5490 4723 c0 -58 121 -205 188 -228 112 -39 573 -19 618 26 29 29
-40 46 -195 51 -142 4 -179 10 -236 40 -37 20 -116 49 -176 66 -60 16 -124 41
-142 53 -45 32 -57 30 -57 -8z m225 -103 c0 -8 -3 -15 -7 -15 -3 0 -10 7 -15
15 -6 8 -3 15 6 15 9 0 16 -7 16 -15z m25 -85 c-5 -5 -14 -5 -20 0 -5 6 -1 10
10 10 11 0 16 -4 10 -10z m76 1 c-5 -5 -18 -6 -29 -1 -12 5 -8 8 9 9 16 0 25
-3 20 -8z"/>
<path d="M3735 4689 c-192 -18 -231 -49 -56 -43 182 5 266 19 266 43 0 11 -8
20 -19 19 -10 -1 -96 -10 -191 -19z"/>
<path d="M4781 4401 c-434 -86 -567 -400 -291 -686 114 -118 184 -144 424
-156 459 -22 711 196 637 552 -50 242 -383 367 -770 290z m344 -106 c-5 -5
-14 -5 -20 0 -5 6 -1 10 10 10 11 0 16 -4 10 -10z m-175 -19 c-54 -7 -67 -14
-67 -38 0 -57 107 -82 191 -46 19 8 26 4 26 -13 0 -54 -151 -71 -255 -30 -71
29 -74 43 -20 99 35 36 51 42 117 40 l76 -3 -68 -9z m-192 -27 c-42 -87 27
-144 183 -152 195 -9 268 68 137 145 -41 24 -49 32 -23 25 234 -60 126 -242
-137 -228 -194 10 -283 103 -191 200 40 43 49 45 31 10z m424 11 c6 -8 0 -11
-14 -6 -26 10 -30 21 -9 21 8 0 18 -7 23 -15z m105 -26 c4 -11 15 -17 23 -12
9 6 11 -1 5 -16 -7 -17 -4 -22 7 -15 62 38 23 -121 -46 -187 -165 -159 -620
-156 -737 5 -20 28 -25 46 -15 56 11 11 22 4 35 -21 35 -65 169 -119 315 -126
287 -14 451 102 389 275 -22 60 2 99 24 41z m-269 -18 c-5 -8 -19 -11 -31 -6
-31 12 -27 20 9 20 17 0 27 -6 22 -14z m-358 -106 c51 -134 406 -151 541 -26
19 17 34 24 34 14 0 -119 -378 -183 -554 -93 -69 35 -103 95 -74 129 25 31 34
26 53 -24z m570 20 c-5 -5 -10 -1 -10 10 0 11 5 16 10 10 6 -5 6 -14 0 -20z
m290 -117 c0 -36 -7 -70 -15 -75 -8 -6 -15 -23 -15 -39 0 -16 -7 -29 -15 -29
-8 0 -10 -9 -6 -21 12 -33 -16 -41 -100 -30 l-77 10 50 39 c81 63 134 126 143
171 13 64 35 48 35 -26z m-1069 -86 c37 -56 43 -73 27 -86 -25 -21 -45 3 -75
88 -42 119 -31 118 48 -2z m188 -134 c89 -45 234 -53 379 -21 185 41 352 32
352 -20 0 -187 -741 -202 -840 -18 -47 89 1 114 109 59z"/>
<path d="M6825 4382 c0 -35 63 -79 89 -63 14 9 8 23 -24 52 -50 46 -65 49 -65
11z"/>
<path d="M6705 4330 c0 -11 20 -34 44 -52 56 -41 78 -15 30 36 -37 39 -74 48
-74 16z"/>
<path d="M6502 4154 c-16 -25 6 -89 31 -89 24 0 27 18 13 71 -10 36 -28 44
-44 18z"/>
<path d="M6189 3528 c-9 -15 49 -108 67 -108 22 0 16 43 -10 83 -25 38 -44 46
-57 25z"/>
<path d="M6150 3369 c0 -27 40 -59 59 -47 11 7 11 19 1 39 -18 33 -60 39 -60
8z"/>
<path d="M6041 3066 c-15 -15 18 -66 42 -66 24 0 27 14 13 51 -9 24 -38 32
-55 15z"/>
<path d="M1790 6905 c6 -5 15 -5 20 0 6 6 1 10 -10 10 -11 0 -15 -4 -10 -10z"/>
<path d="M1736 6576 c-32 -32 -8 -51 65 -51 64 0 75 4 71 26 -5 27 -114 47
-136 25z"/>
<path d="M1855 6320 c-5 -5 -10 -21 -10 -34 1 -19 4 -19 17 4 16 28 11 48 -7
30z"/>
<path d="M1800 5895 c0 -11 5 -15 10 -10 6 6 6 15 0 20 -5 6 -10 1 -10 -10z"/>
<path d="M1785 5625 c0 -11 5 -15 10 -10 6 6 6 15 0 20 -5 6 -10 1 -10 -10z"/>
<path d="M1920 5475 c0 -8 7 -15 15 -15 8 0 15 7 15 15 0 8 -7 15 -15 15 -8 0
-15 -7 -15 -15z"/>
<path d="M1930 5435 c-17 -17 -11 -30 13 -30 12 0 22 9 22 20 0 21 -18 27 -35
10z"/>
<path d="M2040 5085 c0 -11 5 -15 10 -10 6 6 6 15 0 20 -5 6 -10 1 -10 -10z"/>
<path d="M2025 4875 c0 -11 5 -15 10 -10 6 6 6 15 0 20 -5 6 -10 1 -10 -10z"/>
<path d="M2122 4664 c-6 -9 -6 -20 -1 -25 5 -5 9 -1 9 9 0 10 8 14 17 8 11 -7
14 -4 7 7 -13 21 -20 21 -32 1z"/>
<path d="M2783 4095 c5 -8 12 -15 15 -15 4 0 7 7 7 15 0 8 -7 15 -16 15 -9 0
-12 -7 -6 -15z"/>
<path d="M2869 3903 c-49 -41 -64 -78 -32 -78 29 0 118 75 118 98 0 33 -32 26
-86 -20z"/>
<path d="M3015 3570 c0 -11 5 -15 10 -10 6 6 6 15 0 20 -5 6 -10 1 -10 -10z"/>
<path d="M3020 3455 c6 -5 15 -5 20 0 6 6 1 10 -10 10 -11 0 -15 -4 -10 -10z"/>
<path d="M3306 1438 c-7 -11 -4 -14 7 -7 17 11 23 24 10 24 -3 0 -11 -8 -17
-17z"/>
</g>
</svg>
