<svg version="1.0" xmlns="http://www.w3.org/2000/svg" width="1800.000000pt" height="1788.000000pt" viewBox="0 0 1800.000000 1788.000000" preserveAspectRatio="xMidYMid meet" style="width: 343.987px; height: auto;"> <g transform="translate(0.000000,1788.000000) scale(0.100000,-0.100000)" fill="#000000" stroke="none"> <path d="M8686 14789 c-55 -4 -106 -11 -115 -15 -9 -4 -86 -10 -171 -14 -112 -5 -164 -12 -187 -23 -17 -9 -71 -23 -120 -31 -48 -8 -101 -19 -116 -25 -16 -6 -68 -18 -115 -26 -47 -8 -94 -22 -103 -31 -10 -9 -45 -19 -78 -23 -38 -5 -72 -16 -91 -29 -16 -13 -52 -27 -80 -32 -27 -5 -63 -16 -79 -25 -17 -8 -45 -15 -64 -15 -19 0 -55 -11 -81 -25 -26 -14 -55 -25 -65 -25 -10 0 -35 -11 -55 -25 -20 -14 -45 -25 -55 -25 -10 0 -43 -13 -74 -30 -31 -16 -63 -30 -70 -30 -7 0 -28 -11 -47 -25 -19 -14 -41 -25 -50 -25 -9 0 -31 -11 -50 -25 -19 -14 -44 -25 -56 -25 -12 0 -34 -10 -49 -22 -40 -31 -222 -128 -241 -128 -3 0 -22 -13 -41 -30 -18 -16 -38 -30 -44 -30 -5 0 -22 -8 -37 -19 -15 -10 -49 -32 -77 -49 -27 -17 -61 -40 -75 -51 -14 -12 -41 -34 -61 -51 -20 -16 -42 -30 -48 -30 -10 0 -133 -100 -173 -141 -10 -10 -34 -30 -55 -45 -78 -57 -237 -218 -358 -360 -27 -33 -79 -87 -114 -121 -53 -51 -71 -63 -98 -63 -24 0 -37 -7 -49 -25 -9 -14 -26 -25 -38 -25 -13 0 -52 -30 -99 -75 -42 -41 -81 -75 -86 -75 -5 0 -24 -18 -42 -40 -19 -22 -74 -82 -123 -133 -81 -84 -121 -133 -153 -191 -6 -12 -32 -44 -58 -71 -25 -28 -60 -74 -78 -104 -17 -29 -46 -69 -63 -88 -17 -19 -44 -59 -58 -88 -15 -29 -36 -61 -47 -71 -10 -9 -19 -23 -19 -29 0 -7 -9 -24 -20 -38 -11 -14 -20 -37 -20 -51 0 -19 -6 -27 -24 -32 -22 -5 -46 -40 -46 -68 0 -7 -11 -23 -25 -36 -14 -13 -25 -34 -25 -48 0 -13 -11 -37 -25 -54 -14 -16 -25 -37 -25 -46 0 -8 -9 -26 -21 -38 -11 -12 -23 -42 -26 -65 -4 -29 -14 -50 -30 -62 -17 -14 -23 -28 -23 -60 0 -31 -7 -48 -27 -70 -23 -23 -28 -37 -27 -75 0 -26 8 -60 16 -77 l16 -30 12 30 c7 17 14 57 17 90 4 43 13 68 29 88 15 17 24 42 24 61 0 21 9 43 25 60 14 15 25 32 25 39 0 7 14 39 30 72 16 33 30 65 30 70 0 6 9 16 19 22 11 7 22 25 26 41 3 17 15 38 25 47 10 9 22 31 26 49 10 50 44 109 75 134 16 13 29 29 29 36 0 7 11 25 25 40 14 15 25 36 25 48 0 11 12 32 28 47 43 44 72 82 72 95 0 7 13 28 30 47 70 80 80 92 80 102 0 5 14 26 30 46 17 20 36 42 43 50 64 79 180 212 195 225 7 6 48 45 91 86 43 41 95 89 116 105 21 17 48 40 60 53 12 12 32 22 44 22 20 0 61 32 61 48 0 4 78 7 173 7 143 0 180 -3 217 -19 25 -10 72 -24 105 -31 57 -12 143 -41 298 -99 153 -58 526 -245 702 -352 50 -30 101 -60 115 -67 28 -13 108 -63 233 -146 45 -29 89 -56 98 -60 8 -3 29 -16 45 -29 16 -13 58 -42 93 -65 106 -70 136 -90 207 -140 38 -26 98 -68 134 -93 36 -25 76 -55 90 -68 14 -12 45 -35 70 -51 25 -16 67 -48 94 -70 49 -40 59 -47 133 -97 22 -14 55 -41 74 -58 19 -18 50 -43 69 -56 19 -13 46 -32 60 -41 14 -10 63 -49 110 -88 47 -39 110 -89 140 -110 30 -22 91 -71 135 -110 146 -129 227 -188 254 -188 25 0 183 119 313 235 20 18 69 58 109 88 39 30 102 80 139 110 37 30 96 76 131 102 35 27 94 72 131 100 37 29 117 89 178 133 61 44 125 91 142 105 17 14 75 55 127 93 53 37 113 80 135 95 21 15 53 36 71 47 18 11 79 51 136 89 144 95 268 176 309 201 39 24 93 58 157 98 24 15 45 27 49 27 4 0 43 22 88 48 119 70 395 212 412 212 4 0 15 6 23 14 17 15 119 59 187 81 23 7 56 21 74 30 18 9 53 23 79 30 25 7 66 20 91 29 186 65 217 71 392 71 l166 0 26 -27 c15 -17 36 -28 51 -28 14 0 25 -4 25 -10 0 -5 17 -21 38 -34 20 -13 81 -66 134 -118 53 -51 102 -98 110 -104 38 -33 218 -250 218 -263 0 -6 11 -18 25 -27 14 -9 25 -23 25 -31 0 -8 10 -24 23 -36 23 -23 47 -55 82 -112 37 -59 59 -90 82 -112 13 -12 23 -29 23 -37 0 -9 20 -43 45 -75 25 -33 51 -74 56 -91 6 -17 20 -35 30 -41 10 -5 19 -18 19 -28 0 -10 14 -35 30 -56 17 -21 30 -46 30 -56 0 -10 9 -26 19 -36 10 -10 24 -37 30 -59 6 -23 18 -47 25 -54 8 -6 18 -25 21 -41 4 -16 17 -42 29 -57 13 -15 26 -47 29 -72 4 -28 13 -51 26 -62 14 -11 21 -28 21 -51 0 -45 21 -137 31 -137 11 0 29 67 29 107 0 18 -11 49 -25 69 -14 20 -25 46 -25 56 0 22 -30 78 -42 78 -4 0 -8 18 -8 39 0 27 -8 49 -25 69 -14 17 -25 40 -25 51 0 12 -11 32 -25 45 -15 14 -25 34 -25 50 0 19 -8 32 -30 44 -21 12 -30 25 -30 43 0 14 -11 40 -25 59 -14 19 -25 40 -25 47 0 11 -44 81 -134 213 -16 25 -38 51 -48 58 -10 7 -25 28 -34 45 -35 74 -52 100 -102 152 -28 31 -52 60 -52 65 0 18 -59 96 -107 141 -26 26 -53 53 -59 60 -7 8 -28 28 -48 44 -19 17 -36 35 -36 41 0 17 -231 229 -254 232 -11 2 -33 15 -49 28 -16 13 -37 24 -48 24 -10 0 -27 9 -37 21 -9 11 -30 27 -46 36 -16 8 -41 29 -55 46 -14 17 -33 38 -41 47 -8 8 -36 42 -62 75 -65 84 -276 289 -318 310 -19 10 -62 45 -95 79 -70 71 -123 116 -137 116 -6 0 -25 12 -43 28 -18 15 -50 38 -70 52 -19 14 -52 37 -72 53 -20 15 -40 27 -45 27 -6 0 -23 11 -40 25 -16 14 -35 25 -43 25 -7 0 -19 9 -26 19 -8 11 -49 33 -93 50 -43 17 -92 43 -108 56 -16 14 -37 25 -45 25 -9 0 -26 11 -39 25 -13 14 -34 25 -48 25 -13 0 -38 11 -54 25 -17 14 -38 25 -49 25 -11 0 -34 11 -53 25 -19 14 -41 25 -49 25 -9 0 -32 10 -51 21 -31 20 -55 29 -170 69 -19 6 -56 22 -81 35 -26 13 -64 27 -85 30 -22 4 -54 16 -73 26 -18 11 -59 23 -91 27 -34 5 -68 17 -85 30 -16 13 -42 22 -62 22 -19 0 -58 11 -88 25 -32 16 -80 28 -122 32 -39 3 -81 13 -100 25 -20 12 -64 22 -120 27 -48 5 -103 17 -121 26 -24 12 -75 20 -185 26 -84 5 -206 15 -272 23 -130 16 -452 19 -619 5z"></path> <path d="M4490 11313 c-8 -3 -25 -15 -37 -26 -13 -12 -29 -17 -39 -13 -9 3 -41 -2 -71 -11 -50 -17 -54 -20 -50 -45 2 -16 0 -28 -5 -28 -5 0 -13 -10 -19 -22 l-10 -23 5 23 c7 35 -17 52 -61 42 -33 -8 -72 -41 -73 -62 0 -16 -17 -7 -46 22 -16 16 -32 30 -35 30 -12 0 -31 -59 -31 -96 0 -21 9 -48 20 -64 11 -14 25 -43 30 -63 6 -20 20 -49 31 -63 12 -15 21 -31 21 -36 0 -5 10 -22 21 -38 l22 -28 -21 -34 c-24 -40 -52 -145 -52 -197 0 -33 -6 -42 -51 -77 -27 -21 -65 -51 -83 -66 -19 -16 -39 -28 -45 -28 -6 0 -35 -22 -63 -50 -28 -27 -54 -50 -57 -50 -9 0 -121 -137 -156 -190 -16 -25 -44 -62 -62 -83 -18 -20 -33 -43 -33 -50 0 -8 -9 -22 -19 -31 -10 -10 -22 -33 -25 -51 -4 -19 -13 -38 -20 -42 -18 -11 -36 -48 -36 -75 0 -13 -9 -29 -20 -36 -16 -10 -20 -23 -20 -66 0 -46 -3 -56 -25 -70 -21 -14 -25 -24 -25 -69 0 -66 11 -85 34 -62 11 12 16 34 16 76 0 52 3 63 26 82 17 15 27 36 31 67 4 27 14 51 26 60 13 11 20 30 21 52 1 27 8 42 29 58 15 12 27 31 27 44 0 12 11 33 25 46 14 13 25 29 25 35 0 7 12 26 28 42 15 17 38 48 52 68 52 78 285 295 316 295 7 0 17 7 22 16 12 21 62 50 210 123 68 34 136 61 151 61 16 0 40 9 54 21 15 11 53 24 89 30 35 5 83 18 108 29 58 25 414 49 576 39 60 -4 159 -10 221 -13 84 -4 122 -11 150 -26 22 -11 70 -22 113 -26 55 -5 81 -12 97 -27 14 -12 42 -22 75 -25 30 -3 68 -15 88 -27 19 -13 52 -26 73 -29 20 -4 37 -11 37 -15 0 -5 26 -20 58 -35 31 -15 73 -35 92 -46 34 -18 127 -110 265 -264 39 -43 78 -85 88 -94 10 -10 37 -42 60 -72 23 -30 50 -62 60 -72 9 -10 17 -24 17 -30 0 -7 12 -24 26 -38 36 -36 134 -171 134 -185 0 -7 11 -20 25 -29 14 -9 25 -22 25 -29 0 -8 11 -24 25 -37 14 -13 25 -31 25 -41 0 -10 11 -31 25 -47 14 -17 25 -36 25 -43 0 -7 11 -31 24 -53 13 -23 27 -61 31 -86 4 -24 16 -64 27 -89 10 -24 21 -72 24 -105 2 -34 12 -136 21 -228 15 -143 15 -179 4 -255 -7 -48 -16 -137 -20 -198 -6 -97 -10 -115 -34 -149 -15 -21 -27 -43 -27 -48 0 -8 -89 -168 -100 -178 -3 -3 -18 -23 -34 -45 -44 -59 -293 -303 -319 -311 -22 -7 -55 -29 -104 -71 -14 -13 -35 -23 -47 -23 -30 0 -50 -16 -43 -33 7 -19 -12 -27 -68 -27 -30 0 -50 -6 -62 -19 -10 -10 -40 -22 -66 -25 -27 -4 -63 -16 -80 -26 -18 -11 -59 -22 -92 -26 -33 -4 -81 -17 -107 -30 -36 -18 -64 -24 -117 -24 -39 0 -97 -8 -132 -19 -96 -29 -133 -31 -539 -32 -361 -1 -377 0 -415 20 -26 13 -67 22 -115 25 -83 5 -106 11 -133 34 -10 9 -45 19 -78 23 -42 5 -68 14 -84 29 -19 18 -36 23 -82 23 -32 0 -52 2 -45 4 17 6 15 30 -4 37 -9 3 -29 6 -45 6 -19 0 -34 8 -45 24 -8 14 -31 30 -49 36 -18 6 -39 18 -46 27 -7 8 -22 19 -34 24 -22 10 -69 43 -125 87 -60 47 -250 242 -250 256 0 8 -14 29 -32 47 -33 35 -70 101 -89 157 -10 32 -29 44 -29 20 -1 -21 -30 65 -30 89 0 12 -9 31 -20 41 -14 13 -23 39 -29 89 -5 38 -15 83 -24 99 -8 16 -18 56 -22 89 -3 33 -10 83 -16 110 -5 28 -13 119 -18 204 -6 85 -14 158 -20 164 -19 19 -26 -69 -25 -318 0 -195 4 -264 16 -315 9 -36 19 -98 22 -138 3 -46 12 -84 23 -100 9 -15 20 -53 24 -85 4 -36 15 -67 27 -80 11 -12 22 -39 25 -61 3 -21 13 -46 22 -56 16 -18 50 -77 80 -140 10 -19 26 -41 36 -48 10 -7 19 -19 19 -27 0 -8 13 -30 30 -48 17 -19 30 -38 30 -42 0 -17 267 -278 320 -313 67 -44 120 -92 120 -108 0 -6 -6 -17 -14 -23 -8 -7 -18 -26 -22 -43 -3 -17 -15 -45 -25 -62 -23 -38 -25 -133 -3 -191 9 -22 19 -77 24 -123 5 -50 16 -95 28 -115 10 -18 22 -62 26 -97 5 -39 17 -80 32 -105 13 -23 24 -55 24 -71 0 -16 9 -48 20 -69 12 -22 23 -59 27 -82 3 -24 16 -57 29 -75 13 -17 24 -43 24 -58 0 -14 11 -42 25 -62 14 -20 25 -41 25 -46 0 -5 14 -26 30 -47 17 -21 30 -44 30 -51 0 -25 167 -201 197 -209 16 -3 35 -13 45 -21 9 -9 40 -21 70 -29 61 -15 159 -55 182 -74 9 -8 16 -21 16 -31 0 -9 11 -34 25 -54 14 -20 25 -43 25 -51 0 -7 10 -26 23 -42 12 -15 30 -44 40 -63 9 -19 31 -55 47 -80 16 -25 38 -61 49 -81 11 -19 27 -41 35 -48 9 -8 16 -19 16 -27 0 -7 21 -39 48 -71 63 -78 101 -129 137 -183 17 -25 37 -52 46 -60 9 -8 68 -76 131 -150 124 -145 280 -302 393 -395 39 -32 97 -83 130 -114 33 -31 80 -71 105 -89 25 -18 74 -54 109 -80 35 -26 89 -64 119 -84 30 -21 65 -46 76 -57 23 -20 45 -32 156 -87 41 -21 89 -49 105 -64 17 -15 42 -34 57 -41 168 -85 225 -115 238 -125 8 -6 33 -17 55 -24 22 -7 47 -18 55 -25 8 -8 29 -17 45 -21 17 -4 50 -17 75 -30 25 -13 52 -24 60 -24 9 0 26 -7 38 -16 30 -20 151 -62 228 -78 33 -7 74 -22 90 -34 16 -11 51 -23 77 -27 27 -4 68 -14 90 -24 23 -10 68 -20 99 -24 33 -3 75 -16 100 -30 33 -19 64 -26 131 -31 49 -3 102 -13 119 -22 21 -11 79 -19 182 -25 83 -5 200 -16 259 -24 148 -20 537 -20 672 1 55 8 170 19 255 24 119 6 167 13 208 29 31 13 76 21 110 21 32 1 81 10 112 21 30 11 89 26 131 34 42 7 87 20 100 28 13 8 48 18 76 22 29 4 64 16 78 27 14 11 51 26 83 33 83 19 183 55 214 77 14 10 41 21 60 25 18 3 53 17 78 29 25 13 52 24 61 24 9 0 22 6 28 14 7 8 25 17 40 21 16 3 43 17 62 31 18 13 38 24 45 24 15 0 140 66 172 90 13 11 30 20 36 20 7 0 25 13 41 30 16 17 34 30 39 30 15 0 122 54 173 88 119 77 253 171 298 208 28 22 58 45 68 51 9 5 41 31 70 59 28 27 77 70 107 94 134 109 448 426 495 500 12 20 47 61 78 92 58 60 80 90 176 233 32 50 68 100 79 112 11 12 34 48 53 80 18 32 43 72 56 89 13 17 23 35 23 41 0 6 13 27 30 48 16 21 30 44 30 52 0 11 21 57 59 132 10 19 135 70 191 78 25 3 54 14 65 23 11 10 34 24 51 32 35 15 170 158 187 197 6 14 24 41 39 59 15 18 28 38 28 45 0 7 11 28 25 47 16 22 25 47 25 71 0 21 8 47 20 61 10 14 24 45 29 69 6 24 19 62 31 84 11 21 20 56 20 76 0 22 8 47 21 63 12 15 24 52 29 89 5 35 18 83 29 108 15 33 21 66 21 127 0 68 4 89 20 109 39 50 14 230 -41 289 -10 11 -19 25 -19 30 0 16 67 74 117 100 73 39 393 370 393 406 0 6 11 23 25 40 14 16 25 35 25 42 0 8 9 25 21 40 31 40 67 110 79 158 7 24 21 53 32 64 11 13 23 44 27 75 4 30 16 70 26 89 12 21 22 68 26 120 4 47 12 105 19 130 9 31 13 123 12 300 -1 253 -7 320 -29 327 -20 7 -32 -64 -43 -265 -7 -130 -15 -203 -25 -221 -8 -16 -19 -68 -25 -117 -8 -69 -15 -92 -30 -103 -14 -9 -20 -25 -20 -50 0 -26 -9 -47 -32 -75 -28 -34 -30 -41 -18 -59 10 -16 10 -22 1 -25 -7 -2 -17 -11 -24 -19 -7 -8 -29 -33 -49 -55 -21 -21 -38 -44 -38 -51 0 -23 -96 -150 -153 -204 -31 -29 -57 -61 -59 -70 -2 -10 -10 -18 -19 -18 -9 0 -38 -20 -66 -45 -27 -25 -70 -58 -94 -74 -24 -16 -55 -37 -69 -46 -14 -10 -37 -21 -50 -25 -14 -4 -38 -18 -53 -31 -16 -13 -37 -24 -46 -24 -10 0 -29 -8 -42 -18 -13 -11 -36 -22 -51 -26 -15 -3 -44 -17 -64 -31 -26 -17 -50 -25 -81 -25 -37 0 -50 -6 -76 -31 -30 -31 -33 -31 -100 -26 -66 6 -115 -4 -127 -24 -9 -14 -100 -18 -440 -18 -329 0 -445 6 -570 34 -47 10 -95 14 -128 11 -45 -5 -60 -2 -108 24 -42 22 -70 30 -109 30 -38 0 -60 6 -79 21 -36 28 -97 36 -115 15 -7 -9 -21 -16 -29 -16 -12 0 -13 3 -4 12 33 33 -23 77 -101 79 -23 0 -36 3 -29 6 22 9 14 35 -11 31 -26 -3 -60 19 -70 45 -4 9 -17 17 -30 17 -13 0 -38 12 -55 28 -17 15 -54 47 -83 72 -188 162 -336 347 -378 469 -6 19 -18 42 -27 52 -11 12 -18 53 -24 141 -5 67 -14 148 -20 178 -16 79 -15 220 4 332 9 54 16 123 16 153 0 35 11 90 30 147 17 50 30 98 30 107 0 9 12 34 25 56 14 22 25 47 25 56 0 9 11 28 25 43 14 15 25 36 25 47 0 10 11 29 25 41 14 12 25 26 25 31 0 5 14 25 30 44 17 18 30 39 30 46 0 7 8 20 18 29 9 9 31 35 47 58 17 22 42 54 58 71 15 16 27 34 27 40 0 20 174 220 353 404 89 93 120 118 185 150 42 21 88 47 101 57 13 10 36 18 51 18 15 0 43 11 62 24 20 13 55 25 85 28 27 3 63 14 79 25 18 13 52 23 93 27 36 3 83 15 105 26 43 20 80 24 372 36 217 9 534 -11 586 -37 21 -11 66 -22 100 -26 45 -4 71 -13 91 -30 16 -12 42 -23 58 -23 16 0 55 -13 86 -30 31 -16 61 -30 67 -30 6 0 22 -9 36 -20 14 -11 33 -20 42 -20 9 0 29 -10 45 -23 15 -12 40 -28 56 -35 15 -6 27 -16 27 -22 0 -6 16 -18 35 -26 19 -8 35 -18 35 -23 0 -6 8 -12 18 -15 36 -12 242 -226 290 -301 42 -68 52 -82 68 -98 10 -10 23 -32 29 -50 5 -18 19 -36 31 -41 17 -8 21 -18 20 -53 -1 -66 46 -88 52 -25 2 23 -4 38 -22 57 -14 14 -26 37 -26 50 0 24 -23 55 -41 55 -6 0 -7 9 -4 20 5 15 -4 30 -34 60 -23 23 -41 47 -41 54 0 7 -9 21 -20 31 -11 10 -20 22 -20 28 0 32 -232 257 -266 257 -7 0 -19 9 -27 20 -14 21 -66 61 -103 81 -29 15 -44 50 -44 102 -1 54 -20 125 -42 157 -10 13 -18 28 -18 33 0 4 18 39 40 77 21 39 43 86 49 105 5 19 19 47 30 61 13 17 21 41 21 66 0 41 -29 121 -37 101 -2 -6 -20 -23 -39 -38 l-34 -26 -10 25 c-6 16 -20 28 -37 32 -15 3 -48 15 -73 26 -25 12 -79 27 -120 35 -41 8 -83 22 -94 31 -14 13 -43 18 -126 20 -90 3 -115 0 -156 -16 -34 -14 -81 -22 -151 -25 -81 -4 -110 -10 -136 -26 -22 -13 -51 -21 -79 -21 -31 0 -54 -7 -73 -21 -15 -12 -47 -26 -72 -30 -24 -5 -56 -18 -70 -29 -14 -11 -36 -20 -48 -20 -12 0 -34 -9 -48 -20 -14 -11 -39 -23 -56 -26 -16 -4 -38 -15 -47 -26 -10 -10 -36 -28 -58 -38 -23 -11 -57 -30 -77 -43 -19 -12 -51 -31 -69 -42 -18 -11 -41 -28 -51 -37 -10 -9 -28 -23 -42 -30 -122 -67 -503 -416 -727 -667 -36 -40 -82 -91 -104 -114 -21 -23 -48 -58 -61 -77 -12 -19 -30 -41 -39 -49 -9 -7 -16 -18 -16 -23 0 -6 -22 -36 -50 -68 -27 -32 -50 -63 -50 -69 0 -5 -12 -25 -27 -43 -16 -18 -32 -40 -38 -49 -5 -9 -40 -62 -77 -116 -38 -55 -68 -103 -68 -107 0 -5 -10 -22 -22 -39 -40 -57 -188 -344 -188 -368 0 -7 -12 -32 -25 -54 -14 -22 -25 -52 -25 -66 0 -14 -9 -52 -21 -85 -25 -72 -27 -166 -5 -218 9 -21 20 -65 25 -97 6 -33 19 -71 30 -85 11 -14 23 -39 26 -57 4 -18 13 -39 20 -47 8 -8 23 -35 34 -60 27 -59 58 -110 82 -136 10 -11 19 -24 19 -28 0 -4 19 -32 43 -63 23 -30 50 -67 59 -81 61 -92 396 -426 521 -519 21 -15 66 -50 100 -77 34 -27 76 -55 94 -62 17 -8 35 -19 39 -25 3 -6 22 -17 40 -25 19 -8 34 -18 34 -23 0 -5 15 -14 33 -22 17 -7 48 -23 67 -36 19 -13 40 -23 47 -23 7 0 29 -11 49 -25 20 -14 45 -25 54 -25 10 0 28 -9 42 -19 13 -11 38 -23 54 -27 16 -4 49 -17 74 -30 25 -13 54 -24 65 -24 11 0 40 -11 65 -24 25 -13 65 -27 90 -31 25 -4 63 -15 85 -25 22 -10 67 -22 99 -26 33 -4 79 -15 102 -25 27 -12 86 -23 162 -29 66 -5 133 -15 148 -22 21 -9 115 -13 342 -13 231 0 315 -3 320 -12 4 -6 2 -80 -5 -164 -11 -123 -17 -157 -32 -173 -10 -12 -21 -42 -24 -70 -3 -27 -14 -61 -27 -78 -19 -26 -21 -38 -15 -84 6 -54 0 -65 -24 -41 -10 10 -15 8 -27 -7 -8 -11 -14 -30 -14 -43 0 -13 -7 -26 -15 -30 -9 -3 -22 -18 -30 -33 -24 -47 -85 -108 -124 -123 -20 -8 -45 -24 -55 -36 -13 -14 -31 -21 -55 -21 -20 0 -54 -10 -76 -22 -29 -15 -68 -23 -145 -30 -82 -6 -111 -13 -133 -29 -29 -21 -36 -21 -530 -21 -491 1 -503 1 -562 22 -47 18 -94 24 -220 30 -113 6 -172 13 -200 25 -26 11 -80 18 -155 22 -94 4 -122 9 -150 26 -26 16 -59 23 -130 28 -106 8 -152 17 -162 33 -4 6 -47 14 -95 17 -57 4 -108 14 -143 28 -30 13 -70 22 -89 22 -38 -2 -86 14 -113 37 -10 8 -51 17 -101 21 -55 4 -93 12 -111 25 -16 10 -61 22 -99 27 -89 11 -107 17 -107 33 0 9 -19 15 -60 18 -44 3 -66 10 -83 26 -13 12 -36 22 -53 22 -16 0 -40 6 -54 13 -14 8 -34 18 -45 24 -11 6 -58 25 -105 44 -110 42 -357 161 -440 212 -77 47 -102 49 -155 13 -44 -31 -378 -196 -395 -196 -6 0 -32 -11 -58 -24 -26 -13 -63 -27 -82 -31 -19 -4 -44 -15 -55 -25 -11 -10 -49 -24 -85 -30 -36 -7 -70 -19 -76 -26 -6 -8 -42 -18 -79 -23 -40 -6 -80 -18 -96 -30 -18 -14 -48 -22 -87 -25 -33 -2 -71 -11 -85 -21 -16 -10 -59 -20 -110 -24 -91 -9 -109 -15 -101 -35 7 -17 -25 -26 -101 -26 -70 0 -131 -15 -138 -34 -4 -9 -31 -13 -101 -13 -80 -1 -102 -4 -133 -23 -30 -18 -60 -23 -158 -29 -94 -6 -128 -12 -155 -28 -27 -16 -60 -22 -150 -28 -82 -4 -126 -12 -152 -25 -20 -10 -38 -16 -41 -14 -11 11 -376 -17 -419 -32 -62 -22 -251 -30 -568 -23 -253 5 -279 7 -328 27 -39 16 -73 22 -133 22 -44 0 -89 5 -100 11 -27 14 -125 39 -147 37 -39 -3 -53 3 -62 28 -9 23 -15 26 -54 22 -24 -1 -42 1 -39 5 8 13 -28 47 -49 47 -11 0 -16 5 -13 11 4 6 -2 20 -12 32 -11 12 -27 34 -36 50 -10 15 -24 27 -31 27 -8 0 -16 16 -20 40 -4 27 -14 45 -31 56 -20 13 -25 25 -25 56 0 24 -8 49 -19 64 -10 13 -22 45 -26 71 -3 27 -17 75 -30 108 -30 76 -46 277 -24 291 8 5 149 9 314 10 205 0 311 4 335 12 19 7 89 17 155 23 74 6 136 17 162 29 23 10 68 21 100 25 32 4 76 15 98 25 22 10 60 21 85 25 25 4 65 18 90 31 25 13 54 24 65 24 11 0 38 11 60 25 22 13 49 25 60 25 11 0 38 11 60 25 22 13 47 25 56 25 8 0 30 11 49 25 19 14 41 25 51 25 9 0 33 14 54 30 21 17 43 30 48 30 6 0 27 11 46 23 20 13 63 41 96 62 33 21 81 56 106 77 26 21 50 38 53 38 20 0 263 214 371 326 129 134 243 273 310 376 6 8 19 28 29 44 50 76 65 101 71 124 4 14 16 35 26 48 10 13 21 37 24 54 4 16 18 46 31 65 13 20 24 48 24 62 0 14 9 58 20 96 11 38 20 88 20 110 1 54 -37 209 -65 270 -13 28 -37 82 -54 120 -33 74 -36 80 -109 215 -83 154 -136 240 -158 253 -8 4 -14 17 -14 27 0 11 -11 32 -25 47 -55 62 -85 101 -85 113 0 7 -22 38 -48 69 -26 31 -78 94 -114 141 -67 87 -97 122 -203 238 -93 102 -274 284 -335 338 -31 27 -85 75 -120 106 -36 31 -105 86 -155 122 -49 36 -103 77 -118 91 -15 14 -34 25 -41 25 -8 0 -19 7 -26 16 -8 8 -27 22 -44 30 -49 22 -113 60 -142 83 -15 12 -34 21 -44 21 -10 0 -29 9 -42 20 -14 10 -44 24 -67 29 -24 5 -48 17 -55 26 -7 9 -34 21 -61 26 -27 5 -56 16 -66 25 -9 8 -44 19 -77 24 -33 4 -72 16 -86 25 -18 12 -59 20 -129 25 -56 4 -105 6 -108 4 -3 -2 -23 6 -45 16 -31 16 -57 20 -139 19 -55 0 -107 -3 -115 -6z m464 -119 c25 -10 19 -26 -6 -19 -31 10 -47 25 -26 25 9 0 23 -3 32 -6z m8146 -4 c12 -8 9 -10 -13 -10 -16 0 -37 -5 -48 -10 -15 -8 -19 -7 -19 4 0 22 54 33 80 16z m-7980 -60 c0 -5 -18 -10 -40 -10 -22 0 -40 5 -40 10 0 6 18 10 40 10 22 0 40 -4 40 -10z m8670 -27 c0 -5 -5 -15 -10 -23 -8 -12 -10 -11 -10 8 0 12 5 22 10 22 6 0 10 -3 10 -7z m-8542 -30 c-10 -2 -28 -2 -40 0 -13 2 -5 4 17 4 22 1 32 -1 23 -4z m7479 -4 c-14 -8 -22 -8 -30 0 -8 8 -3 11 19 11 25 -1 27 -2 11 -11z m-7359 -37 c2 -7 -6 -12 -17 -12 -21 0 -27 11 -14 24 9 9 26 2 31 -12z m7290 -9 c6 -19 -33 -16 -49 3 -11 14 -9 15 16 12 16 -1 30 -9 33 -15z m-7036 -145 c-5 -5 -27 -11 -48 -13 -22 -1 -28 0 -15 2 13 3 30 11 38 19 8 8 19 11 25 8 6 -4 6 -10 0 -16z m-1262 -8 c0 -5 -10 -10 -22 -10 -19 0 -20 2 -8 10 19 13 30 13 30 0z m9355 1 c3 -5 1 -12 -4 -15 -12 -8 -41 3 -41 15 0 12 37 12 45 0z m-9205 -75 l0 -45 -57 -6 c-90 -11 -96 -11 -100 0 -2 7 22 11 62 13 37 1 70 4 76 7 5 4 9 22 9 41 0 19 2 34 5 34 3 0 5 -20 5 -44z m1180 34 c0 -5 -6 -10 -14 -10 -8 0 -18 5 -21 10 -3 6 3 10 14 10 12 0 21 -4 21 -10z m-210 -10 c0 -5 -17 -10 -37 -9 -34 1 -35 2 -13 9 36 11 50 11 50 0z m-682 -7 c-16 -2 -40 -2 -55 0 -16 2 -3 4 27 4 30 0 43 -2 28 -4z m742 -3 c0 -5 -6 -10 -14 -10 -8 0 -18 5 -21 10 -3 6 3 10 14 10 12 0 21 -4 21 -10z m7059 6 c-10 -8 -129 -13 -129 -5 0 5 30 9 67 9 36 0 64 -2 62 -4z m701 -6 c0 -12 -46 -12 -110 -1 -41 8 -39 9 33 10 45 0 77 -3 77 -9z m-7543 -35 c-8 -17 -19 -24 -31 -23 -30 5 -32 28 -2 28 14 0 26 5 26 10 0 6 4 10 9 10 5 0 4 -11 -2 -25z m6514 -28 c-9 -9 -17 -8 -32 1 -11 7 -29 10 -40 7 -13 -4 -19 -2 -19 9 0 20 39 25 74 8 21 -10 25 -17 17 -25z m1189 17 c0 -14 -12 -19 -23 -8 -9 9 4 35 14 28 5 -3 9 -12 9 -20z m-7649 -10 c12 -14 11 -16 -5 -13 -11 2 -21 10 -24 17 -5 17 13 15 29 -4z m7734 5 c10 -15 -1 -23 -20 -15 -9 3 -13 10 -10 16 8 13 22 13 30 -1z m-10045 -2645 c0 -14 -4 -22 -10 -19 -5 3 -10 17 -10 31 0 14 4 22 10 19 6 -3 10 -17 10 -31z m10940 -108 c0 -8 -4 -18 -10 -21 -5 -3 -10 3 -10 14 0 12 5 21 10 21 6 0 10 -6 10 -14z m-10850 -72 c0 -8 -4 -14 -10 -14 -5 0 -10 9 -10 21 0 11 5 17 10 14 6 -3 10 -13 10 -21z m48 -70 c-10 -10 -28 6 -28 24 0 15 1 15 17 -1 9 -9 14 -19 11 -23z m10622 -41 c-1 -27 -1 -27 -15 -9 -14 19 -12 36 6 36 5 0 9 -12 9 -27z m-10580 -2 c7 -13 7 -22 0 -26 -15 -9 -30 4 -30 26 0 25 16 25 30 0z m10611 -54 c-13 -13 -26 -3 -16 12 3 6 11 8 17 5 6 -4 6 -10 -1 -17z m-23 -29 c-7 -19 -38 -22 -38 -4 0 10 9 16 21 16 12 0 19 -5 17 -12z m-10483 -18 c3 -5 -3 -10 -15 -10 -12 0 -18 5 -15 10 3 6 10 10 15 10 5 0 12 -4 15 -10z m55 -45 c7 -9 10 -18 7 -22 -8 -7 -37 15 -37 28 0 14 16 11 30 -6z m90 -75 c0 -5 -11 -10 -25 -10 -14 0 -25 5 -25 10 0 6 11 10 25 10 14 0 25 -4 25 -10z m10120 -115 c0 -9 -9 -15 -21 -15 -18 0 -19 2 -9 15 7 8 16 15 21 15 5 0 9 -7 9 -15z m-10008 -43 c-27 -4 -37 2 -27 17 4 8 13 7 28 -1 l22 -13 -23 -3z m9898 -47 c0 -8 -9 -15 -20 -15 -11 0 -20 7 -20 15 0 8 9 15 20 15 11 0 20 -7 20 -15z m-9695 -95 c-5 -8 -11 -8 -17 -2 -6 6 -7 16 -3 22 5 8 11 8 17 2 6 -6 7 -16 3 -22z m9510 14 c17 -12 18 -16 5 -24 -17 -10 -30 -4 -30 15 0 7 -6 16 -12 18 -9 4 -8 6 2 6 8 0 24 -6 35 -15z m-7978 -20 c-9 -9 -28 6 -21 18 4 6 10 6 17 -1 6 -6 8 -13 4 -17z m6380 -35 c-14 -8 -22 -8 -30 0 -8 8 -3 11 19 11 25 -1 27 -2 11 -11z m-6242 -19 c-3 -5 -12 -10 -20 -10 -8 0 -17 5 -20 10 -4 6 5 10 20 10 15 0 24 -4 20 -10z m6187 -2 c-9 -9 -15 -9 -24 0 -9 9 -7 12 12 12 19 0 21 -3 12 -12z m1538 2 c0 -5 -7 -10 -15 -10 -8 0 -15 5 -15 10 0 6 7 10 15 10 8 0 15 -4 15 -10z m-7835 -10 c-3 -5 -13 -10 -21 -10 -8 0 -14 5 -14 10 0 6 9 10 21 10 11 0 17 -4 14 -10z m-115 -75 c0 -8 -7 -15 -15 -15 -16 0 -20 12 -8 23 11 12 23 8 23 -8z m-1556 -28 c-3 -9 -10 -17 -15 -17 -11 0 -12 34 -2 43 11 12 24 -8 17 -26z m8201 12 c-3 -4 -12 -6 -20 -3 -8 4 -13 10 -10 15 3 4 12 6 20 3 8 -4 13 -10 10 -15z m1504 -40 c3 -23 2 -23 -16 -6 -11 9 -27 17 -37 17 -9 0 -15 4 -11 9 3 5 18 8 33 7 20 -2 28 -9 31 -27z m-9564 12 c3 -5 2 -12 -3 -15 -12 -7 -52 4 -52 15 0 12 47 12 55 0z m1269 -22 c-7 -11 -34 -12 -34 -1 0 14 11 21 26 15 8 -3 11 -9 8 -14z m6926 6 c0 -8 -6 -15 -14 -15 -20 0 -29 17 -14 23 22 9 28 7 28 -8z m1265 -10 c0 -11 -8 -21 -17 -23 -14 -3 -18 3 -18 23 0 20 4 26 18 23 9 -2 17 -12 17 -23z m-8975 5 c0 -13 -11 -13 -30 0 -12 8 -11 10 8 10 12 0 22 -4 22 -10z m-570 -10 c0 -5 -9 -10 -20 -10 -11 0 -20 5 -20 10 0 6 9 10 20 10 11 0 20 -4 20 -10z m8555 -20 c3 -5 -3 -10 -15 -10 -12 0 -18 5 -15 10 3 6 10 10 15 10 5 0 12 -4 15 -10z m-8366 -16 c2 -2 -7 -4 -22 -4 -14 0 -29 5 -32 10 -6 10 42 4 54 -6z m621 6 c0 -13 -41 -29 -58 -23 -9 4 -10 9 -1 19 13 16 59 19 59 4z m8646 -10 c8 0 14 -4 14 -10 0 -16 -30 -12 -48 7 -16 16 -16 16 1 10 10 -4 25 -7 33 -7z m-1021 -10 c-3 -5 -15 -10 -25 -10 -10 0 -22 5 -25 10 -4 6 7 10 25 10 18 0 29 -4 25 -10z m375 0 c-20 -5 -39 -5 -44 1 -6 5 7 9 35 8 l44 -1 -35 -8z m-7812 -7 c-10 -2 -26 -2 -35 0 -10 3 -2 5 17 5 19 0 27 -2 18 -5z m-1045 -202 l-18 -26 -7 69 c-9 90 1 104 24 36 17 -51 17 -55 1 -79z m512 119 c7 -12 -39 -24 -60 -16 -8 3 -15 10 -15 16 0 13 67 13 75 0z m8650 0 c-3 -5 -15 -10 -26 -10 -11 0 -17 5 -14 10 3 6 15 10 26 10 11 0 17 -4 14 -10z m110 0 c8 -13 -25 -13 -45 0 -12 8 -9 10 12 10 15 0 30 -4 33 -10z m447 -52 c-2 -10 -8 -18 -12 -18 -13 0 -17 35 -7 60 l10 25 7 -25 c3 -14 4 -33 2 -42z m-62 -239 c0 -11 -4 -17 -10 -14 -5 3 -10 13 -10 21 0 8 5 14 10 14 6 0 10 -9 10 -21z m-84 -326 c-7 -17 -8 -17 -17 0 -12 21 -2 44 13 29 6 -6 8 -19 4 -29z m-9432 -25 c-9 -14 -23 2 -17 18 4 12 8 13 14 3 4 -7 5 -17 3 -21z m3656 -138 c0 -5 -7 -10 -15 -10 -8 0 -15 5 -15 10 0 6 7 10 15 10 8 0 15 -4 15 -10z m-3526 -62 c6 -4 7 -10 3 -14 -11 -11 -36 28 -36 56 1 24 1 24 11 -5 6 -16 16 -33 22 -37z m105 -30 c0 -7 -4 -22 -9 -33 -7 -18 -8 -19 -15 -2 -4 9 -5 24 -1 32 7 18 26 20 25 3z m-69 -65 c0 -33 -24 -25 -28 10 -3 21 0 26 12 21 9 -3 16 -17 16 -31z m6060 7 c0 -5 -9 -10 -20 -10 -11 0 -20 5 -20 10 0 6 9 10 20 10 11 0 20 -4 20 -10z m-5961 -77 c-14 -16 -29 -8 -29 16 0 27 13 34 27 15 9 -13 10 -21 2 -31z m2746 33 c30 -11 36 -16 23 -21 -30 -12 -83 -1 -86 18 -4 21 10 21 63 3z m3430 -11 c0 -12 -50 -19 -73 -10 -14 5 -14 7 -2 16 19 12 75 7 75 -6z m340 -94 c3 -5 1 -13 -5 -16 -15 -9 -43 3 -35 15 8 13 32 13 40 1z m-6454 -34 c-13 -13 -31 0 -24 19 4 11 8 12 20 3 9 -8 10 -16 4 -22z m8779 4 c0 -5 -9 -11 -20 -14 -20 -5 -26 3 -13 16 9 10 33 8 33 -2z m-1702 -73 c2 -13 -7 -18 -43 -24 -27 -4 -55 -2 -68 4 -21 10 -20 11 9 11 16 1 39 8 50 16 24 18 48 15 52 -7z m-5318 -7 c28 -1 32 -3 18 -12 -19 -10 -150 -1 -143 10 4 7 22 7 125 2z m5850 -16 c0 -8 -6 -15 -14 -15 -20 0 -29 17 -14 23 22 9 28 7 28 -8z m960 5 c0 -5 -11 -10 -24 -10 -14 0 -28 5 -31 10 -4 6 7 10 24 10 17 0 31 -4 31 -10z m-7192 -37 c2 -9 -8 -13 -32 -13 -34 0 -52 11 -39 24 11 11 66 2 71 -11z m6151 -19 c2 -2 -17 -4 -42 -4 -26 0 -47 5 -47 10 0 9 78 4 89 -6z m-6781 -1 c-10 -2 -28 -2 -40 0 -13 2 -5 4 17 4 22 1 32 -1 23 -4z m440 0 c-10 -2 -26 -2 -35 0 -10 3 -2 5 17 5 19 0 27 -2 18 -5z m6669 0 c-8 -7 -119 -5 -126 3 -2 2 26 4 64 4 38 0 65 -3 62 -7z m-7297 -97 c63 -3 184 -8 268 -12 97 -5 159 -12 170 -20 15 -11 17 -41 20 -306 3 -314 0 -358 -25 -358 -53 0 -673 634 -673 689 0 25 14 29 75 20 27 -4 102 -10 165 -13z m7870 -11 c0 -22 -61 -102 -152 -198 -114 -119 -254 -260 -295 -297 -28 -25 -83 -76 -122 -113 -80 -75 -105 -83 -115 -36 -3 17 -6 156 -6 308 0 202 4 283 13 301 12 24 16 25 155 33 78 4 206 11 285 15 248 15 237 16 237 -13z m-6892 -10 c26 -14 62 -25 80 -25 39 0 107 -32 116 -55 3 -9 6 -85 6 -168 1 -191 16 -454 28 -487 8 -22 10 -18 16 30 3 30 9 181 13 335 l8 280 27 3 c15 2 55 -6 90 -16 35 -11 95 -23 133 -27 39 -3 111 -15 160 -25 50 -10 151 -24 225 -30 218 -18 240 -27 240 -101 0 -21 5 -62 11 -91 9 -42 13 -49 20 -33 4 11 8 48 8 82 1 98 -7 93 155 93 77 0 204 -5 281 -11 77 -6 219 -16 315 -23 111 -8 183 -17 197 -26 17 -11 29 -11 61 -2 54 16 1248 17 1302 1 29 -9 43 -8 66 4 18 9 74 17 144 21 63 4 196 14 295 21 99 8 246 15 326 17 165 3 178 -2 180 -61 1 -20 4 -49 8 -66 6 -26 8 -27 13 -10 4 11 10 43 14 70 3 28 11 58 15 67 13 25 66 36 219 49 74 5 178 19 230 29 52 10 124 21 160 25 36 3 95 15 132 26 37 11 80 19 95 17 l28 -3 6 -130 c4 -71 8 -197 9 -280 1 -82 5 -159 9 -170 l8 -20 6 20 c9 27 27 345 27 473 0 57 5 112 11 124 12 23 67 48 105 48 15 0 52 12 83 26 56 27 57 27 233 21 100 -3 186 -11 198 -17 11 -6 25 -22 30 -36 6 -14 10 -174 10 -364 l0 -338 -34 -28 c-59 -50 -110 -88 -156 -119 -25 -16 -59 -41 -76 -55 -17 -14 -68 -47 -113 -75 -46 -27 -95 -60 -111 -72 -15 -13 -32 -23 -37 -23 -6 0 -30 -13 -54 -30 -24 -16 -64 -32 -89 -36 -34 -5 -55 -16 -86 -45 -41 -40 -82 -67 -144 -95 -19 -9 -82 -38 -140 -66 -58 -27 -123 -58 -145 -68 -22 -11 -53 -22 -69 -25 -17 -4 -42 -15 -57 -26 -15 -10 -42 -22 -61 -25 -18 -4 -52 -17 -75 -30 -23 -13 -52 -24 -64 -24 -13 0 -43 -10 -67 -22 -79 -38 -76 -52 -82 365 -3 201 -8 368 -12 372 -19 19 -40 -300 -36 -546 3 -192 2 -208 -16 -228 -20 -21 -101 -51 -142 -51 -12 0 -42 -9 -67 -20 -25 -11 -67 -23 -94 -26 -26 -3 -80 -17 -120 -30 -39 -13 -87 -24 -105 -24 -19 0 -68 -9 -109 -20 -94 -25 -243 -37 -262 -22 -11 10 -15 92 -21 414 -4 221 -11 409 -16 417 -7 12 -9 9 -10 -14 -5 -318 -23 -811 -30 -825 -6 -10 -18 -21 -27 -24 -58 -18 -245 -26 -593 -26 -434 0 -563 9 -595 40 -21 21 -20 3 -34 720 -1 36 -5 50 -10 40 -5 -8 -12 -177 -16 -375 -5 -257 -10 -362 -18 -368 -20 -14 -218 1 -292 23 -38 11 -87 20 -108 20 -21 0 -71 11 -110 24 -40 13 -96 27 -124 30 -29 4 -74 16 -100 27 -26 11 -67 23 -91 26 -24 3 -56 16 -70 28 l-26 22 3 209 c2 188 -7 356 -26 469 -14 87 -21 -15 -22 -333 l-1 -322 -24 -12 c-20 -9 -32 -7 -65 10 -21 11 -57 24 -78 27 -21 4 -57 18 -80 31 -23 13 -50 24 -60 24 -10 0 -45 14 -78 30 -33 16 -66 30 -74 30 -7 0 -28 8 -45 19 -17 10 -42 22 -56 26 -14 4 -36 15 -50 25 -14 9 -38 20 -54 24 -16 4 -45 18 -65 32 -19 13 -43 24 -52 24 -18 0 -78 42 -120 83 -17 17 -43 30 -66 34 -47 7 -135 57 -322 182 -29 20 -68 45 -85 56 -73 46 -194 136 -238 177 l-48 44 0 348 c0 413 -2 403 87 409 32 2 120 4 196 5 130 2 141 1 185 -23z" class=""></path> <path d="M14530 9730 c-14 -27 4 -86 31 -100 16 -9 19 -22 19 -74 0 -53 4 -66 24 -85 22 -20 24 -32 28 -139 7 -160 24 -197 46 -101 23 97 7 200 -33 215 -11 5 -15 22 -15 74 0 61 -3 71 -25 88 -20 16 -25 29 -25 65 0 28 -6 52 -16 61 -20 20 -21 20 -34 -4z"></path> <path d="M4402 9521 c-34 -21 -27 -135 12 -206 9 -16 23 -46 31 -65 26 -56 71 -129 155 -248 35 -50 38 -77 10 -106 -49 -50 -95 -107 -151 -186 -116 -165 -123 -179 -124 -235 0 -61 16 -85 57 -85 22 0 40 11 69 42 21 23 39 48 39 55 0 7 4 13 9 13 4 0 28 26 53 58 47 58 160 178 190 201 21 15 49 2 93 -43 17 -17 74 -73 128 -124 86 -82 129 -116 250 -199 17 -13 38 -27 44 -33 59 -50 153 -23 153 44 0 12 -92 109 -240 255 -254 249 -262 260 -222 306 21 24 169 157 267 240 125 105 195 178 195 202 0 56 -105 88 -145 43 -10 -11 -26 -22 -36 -25 -39 -13 -177 -113 -328 -239 -57 -47 -112 -86 -121 -86 -10 0 -44 33 -76 73 -83 101 -114 148 -173 262 -42 81 -95 114 -139 86z"></path> <path d="M13483 9503 c-14 -16 -34 -46 -45 -68 -65 -134 -215 -335 -250 -335 -10 0 -35 15 -55 33 -47 41 -125 104 -169 137 -102 77 -205 150 -212 150 -5 0 -23 11 -42 25 -64 47 -150 24 -150 -41 0 -29 19 -48 165 -172 188 -159 315 -284 315 -309 0 -16 -21 -46 -62 -88 -35 -36 -79 -82 -99 -102 -20 -21 -100 -98 -178 -172 -149 -141 -159 -157 -122 -202 14 -17 29 -24 57 -23 37 0 57 9 134 66 14 10 41 29 61 42 52 35 119 94 247 217 62 60 119 109 128 109 19 0 111 -95 210 -215 138 -170 134 -165 169 -165 44 0 60 23 59 84 -1 58 -25 102 -148 264 -39 52 -81 108 -94 124 -12 17 -31 38 -42 45 -26 18 -25 38 3 74 12 16 31 42 43 57 35 45 123 197 136 233 6 19 20 49 31 66 23 40 34 141 18 171 -18 33 -74 30 -108 -5z"></path> <path d="M3306 9428 c-24 -34 -22 -149 3 -179 l19 -24 11 28 c6 16 11 66 11 113 0 66 -3 84 -14 84 -8 0 -22 -10 -30 -22z"></path> </g> </svg>